<?xml version="1.0" encoding="utf-8"?>
<!-- Generator: Adobe Illustrator 16.0.0, SVG Export Plug-In . SVG Version: 6.00 Build 0)  -->
<!DOCTYPE svg PUBLIC "-//W3C//DTD SVG 1.1//EN" "http://www.w3.org/Graphics/SVG/1.1/DTD/svg11.dtd">
<svg version="1.1" id="Layer_1" xmlns="http://www.w3.org/2000/svg" xmlns:xlink="http://www.w3.org/1999/xlink" x="0px" y="0px"
	  viewBox="0 0 3000 3000" enable-background="new 0 0 3000 3000" xml:space="preserve">
<title>javascript-default</title>
<g>
	<rect x="118.25" y="118.25" fill="#F5DE19" width="2763.5" height="2763.5"/>
	<path d="M1974.815,2276.89c55.505,90.729,128.088,157.619,256.175,157.619c106.74,0,177.9-53.725,177.9-128.088
		c0-88.95-71.16-120.616-188.929-172.563l-64.756-27.752c-187.507-79.7-312.037-179.68-312.037-391.381
		c0-194.623,148.369-342.992,380.351-342.992c165.092,0,284.64,57.639,369.32,207.788L2389.678,1710.1
		c-44.475-79.699-92.507-111.365-167.226-111.365c-62.189-6.095-117.546,39.379-123.642,101.568
		c-0.318,3.256-0.496,6.525-0.532,9.797c0,77.921,48.389,109.587,159.754,157.619l64.756,27.753
		c220.597,94.643,345.126,191.065,345.126,408.104c0,233.76-183.593,361.849-430.162,361.849
		c-241.233,0-397.073-114.924-473.215-265.427L1974.815,2276.89z M1057.562,2299.306c40.917,71.16,77.92,133.425,167.227,133.425
		c89.305,0,139.118-33.445,139.118-163.313v-882.029h259.734v886.299c0,268.985-157.619,391.381-387.822,391.381
		c-207.788,0-328.404-106.74-389.602-237.319L1057.562,2299.306z"/>
</g>
</svg>
